M48
; DRILL file {KiCad (5.1.5)-3} date 5/1/2020 7:18:14 PM
; FORMAT={-:-/ absolute / inch / decimal}
; #@! TF.CreationDate,2020-05-01T19:18:14-04:00
; #@! TF.GenerationSoftware,Kicad,Pcbnew,(5.1.5)-3
; #@! TF.FileFunction,Plated,1,2,PTH
FMAT,2
INCH
T1C0.0217
T2C0.0300
T3C0.0315
T4C0.0354
T5C0.0461
T6C0.0591
%
G90
G05
T1
X6.65Y-4.6
X6.65Y-4.65
X6.65Y-4.7
T2
X6.1Y-4.7
X6.1Y-5.0
X6.2Y-4.7
X6.2Y-5.0
X6.3Y-4.7
X6.3Y-5.0
X6.4Y-4.7
X6.4Y-5.0
T3
X7.05Y-4.85
X7.05Y-4.9484
X6.75Y-4.15
X6.75Y-4.45
X6.65Y-4.9
X6.65Y-4.9787
X7.05Y-4.6
X7.35Y-4.6
X6.95Y-4.15
X6.95Y-4.45
X7.35Y-4.15
X7.35Y-4.45
X7.15Y-4.15
X7.15Y-4.45
X6.55Y-4.15
X6.55Y-4.45
X6.35Y-4.15
X6.35Y-4.45
T4
X6.9Y-2.5
X6.9Y-2.6
X6.1Y-4.2031
X6.1Y-4.3016
X6.1Y-4.4
X5.55Y-2.5
X5.55Y-2.6
T5
X5.5Y-4.86
T6
X5.5Y-4.0726
T0
M30
