G04 #@! TF.GenerationSoftware,KiCad,Pcbnew,(5.1.5)-3*
G04 #@! TF.CreationDate,2020-05-01T19:17:31-04:00*
G04 #@! TF.ProjectId,555_Badge,3535355f-4261-4646-9765-2e6b69636164,v01*
G04 #@! TF.SameCoordinates,Original*
G04 #@! TF.FileFunction,Copper,L1,Top*
G04 #@! TF.FilePolarity,Positive*
%FSLAX46Y46*%
G04 Gerber Fmt 4.6, Leading zero omitted, Abs format (unit mm)*
G04 Created by KiCad (PCBNEW (5.1.5)-3) date 2020-05-01 19:17:31*
%MOMM*%
%LPD*%
G04 APERTURE LIST*
%ADD10R,2.170000X2.170000*%
%ADD11C,2.500000*%
%ADD12R,1.600000X1.600000*%
%ADD13C,1.600000*%
%ADD14R,1.800000X1.800000*%
%ADD15C,1.800000*%
%ADD16O,1.500000X1.000000*%
%ADD17R,1.500000X1.000000*%
%ADD18O,1.600000X1.600000*%
%ADD19R,1.900000X1.900000*%
%ADD20C,1.900000*%
%ADD21C,1.524000*%
%ADD22C,0.254000*%
%ADD23C,0.762000*%
G04 APERTURE END LIST*
D10*
X139700000Y-123444000D03*
D11*
X139700000Y-103444000D03*
D12*
X168910000Y-124460000D03*
D13*
X168910000Y-126460000D03*
D12*
X179070000Y-123190000D03*
D13*
X179070000Y-125690000D03*
D14*
X140970000Y-66040000D03*
D15*
X140970000Y-63500000D03*
X175260000Y-63500000D03*
D14*
X175260000Y-66040000D03*
D16*
X168910000Y-118110000D03*
X168910000Y-119380000D03*
D17*
X168910000Y-116840000D03*
D13*
X161290000Y-113030000D03*
D18*
X161290000Y-105410000D03*
X166370000Y-105410000D03*
D13*
X166370000Y-113030000D03*
X181610000Y-113030000D03*
D18*
X181610000Y-105410000D03*
D13*
X186690000Y-105410000D03*
D18*
X186690000Y-113030000D03*
X179070000Y-116840000D03*
D13*
X186690000Y-116840000D03*
D18*
X171450000Y-105410000D03*
D13*
X171450000Y-113030000D03*
X176530000Y-113030000D03*
D18*
X176530000Y-105410000D03*
D19*
X154940000Y-111760000D03*
D20*
X154940000Y-109260000D03*
X154940000Y-106760000D03*
D21*
X162560000Y-119380000D03*
X160020000Y-127000000D03*
X154940000Y-127000000D03*
X157480000Y-127000000D03*
X162560000Y-127000000D03*
X160020000Y-119380000D03*
X157480000Y-119380000D03*
X154940000Y-119380000D03*
D22*
X169132000Y-126460000D02*
X168910000Y-126460000D01*
D23*
X151370000Y-103190000D02*
X154940000Y-106760000D01*
X139700000Y-103190000D02*
X151370000Y-103190000D01*
D22*
X156718001Y-127761999D02*
X157480000Y-127000000D01*
X156336999Y-128143001D02*
X156718001Y-127761999D01*
X154391359Y-128143001D02*
X156336999Y-128143001D01*
X153796999Y-127548641D02*
X154391359Y-128143001D01*
X153796999Y-126451359D02*
X153796999Y-127548641D01*
X154391359Y-125856999D02*
X153796999Y-126451359D01*
X160568641Y-125856999D02*
X154391359Y-125856999D01*
X161416999Y-126705357D02*
X160568641Y-125856999D01*
X161416999Y-127548641D02*
X161416999Y-126705357D01*
X162011359Y-128143001D02*
X161416999Y-127548641D01*
X167856000Y-124460000D02*
X164172999Y-128143001D01*
X164172999Y-128143001D02*
X162011359Y-128143001D01*
X168910000Y-124460000D02*
X167856000Y-124460000D01*
X162518999Y-101558999D02*
X166370000Y-105410000D01*
X138068999Y-102407119D02*
X138917119Y-101558999D01*
X138917119Y-101558999D02*
X162518999Y-101558999D01*
X161416999Y-126575433D02*
X155364567Y-120523001D01*
X161416999Y-127548641D02*
X161416999Y-126575433D01*
X155364567Y-120523001D02*
X154391359Y-120523001D01*
X154391359Y-120523001D02*
X138068999Y-104200641D01*
X138068999Y-104200641D02*
X138068999Y-102407119D01*
X179070000Y-116840000D02*
X179070000Y-123190000D01*
X182409999Y-106209999D02*
X181610000Y-105410000D01*
X187871001Y-111671001D02*
X182409999Y-106209999D01*
X187871001Y-117406881D02*
X187871001Y-111671001D01*
X187489999Y-106209999D02*
X186690000Y-105410000D01*
X187871001Y-106591001D02*
X187489999Y-106209999D01*
X187129874Y-118148008D02*
X187871001Y-117406881D01*
X187871001Y-117406881D02*
X187871001Y-106591001D01*
X180378008Y-118148008D02*
X187129874Y-118148008D01*
X179070000Y-116840000D02*
X180378008Y-118148008D01*
X169914000Y-118110000D02*
X168910000Y-118110000D01*
X172365001Y-115658999D02*
X169914000Y-118110000D01*
X179591001Y-115658999D02*
X172365001Y-115658999D01*
X181572001Y-117639999D02*
X179591001Y-115658999D01*
X185890001Y-117639999D02*
X181572001Y-117639999D01*
X186690000Y-116840000D02*
X185890001Y-117639999D01*
X186690000Y-116840000D02*
X186690000Y-116586000D01*
D23*
X172760000Y-109260000D02*
X176530000Y-113030000D01*
X161290000Y-113030000D02*
X161290000Y-109728000D01*
X154940000Y-109260000D02*
X161036000Y-109474000D01*
X161290000Y-109728000D02*
X161036000Y-109474000D01*
X171450000Y-113030000D02*
X171450000Y-109474000D01*
X161036000Y-109474000D02*
X171450000Y-109474000D01*
X171450000Y-109474000D02*
X172760000Y-109260000D01*
D22*
X154940000Y-109260000D02*
X152360000Y-109260000D01*
X154178001Y-118618001D02*
X154940000Y-119380000D01*
X152360000Y-116800000D02*
X154178001Y-118618001D01*
X152360000Y-109260000D02*
X152360000Y-116800000D01*
X154940000Y-119380000D02*
X162560000Y-127000000D01*
X162089999Y-106209999D02*
X161290000Y-105410000D01*
X171838883Y-106591001D02*
X162471001Y-106591001D01*
X177711001Y-112463119D02*
X171838883Y-106591001D01*
X162471001Y-106591001D02*
X162089999Y-106209999D01*
X177711001Y-113596881D02*
X177711001Y-112463119D01*
X177096881Y-114211001D02*
X177711001Y-113596881D01*
X162648999Y-114211001D02*
X177096881Y-114211001D01*
X157480000Y-119380000D02*
X162648999Y-114211001D01*
X163830000Y-113030000D02*
X166370000Y-113030000D01*
X157480000Y-119380000D02*
X163830000Y-113030000D01*
X181610000Y-113030000D02*
X181356000Y-113030000D01*
X160020000Y-127000000D02*
X160274000Y-127254000D01*
X160020000Y-119380000D02*
X159766000Y-119380000D01*
G36*
X188836301Y-129146300D02*
G01*
X127393700Y-129146300D01*
X127393700Y-124529000D01*
X137976928Y-124529000D01*
X137989188Y-124653482D01*
X138025498Y-124773180D01*
X138084463Y-124883494D01*
X138163815Y-124980185D01*
X138260506Y-125059537D01*
X138370820Y-125118502D01*
X138490518Y-125154812D01*
X138615000Y-125167072D01*
X139414250Y-125164000D01*
X139573000Y-125005250D01*
X139573000Y-123571000D01*
X139827000Y-123571000D01*
X139827000Y-125005250D01*
X139985750Y-125164000D01*
X140785000Y-125167072D01*
X140909482Y-125154812D01*
X141029180Y-125118502D01*
X141139494Y-125059537D01*
X141236185Y-124980185D01*
X141315537Y-124883494D01*
X141374502Y-124773180D01*
X141410812Y-124653482D01*
X141423072Y-124529000D01*
X141420000Y-123729750D01*
X141261250Y-123571000D01*
X139827000Y-123571000D01*
X139573000Y-123571000D01*
X138138750Y-123571000D01*
X137980000Y-123729750D01*
X137976928Y-124529000D01*
X127393700Y-124529000D01*
X127393700Y-122359000D01*
X137976928Y-122359000D01*
X137980000Y-123158250D01*
X138138750Y-123317000D01*
X139573000Y-123317000D01*
X139573000Y-121882750D01*
X139827000Y-121882750D01*
X139827000Y-123317000D01*
X141261250Y-123317000D01*
X141420000Y-123158250D01*
X141423072Y-122359000D01*
X141410812Y-122234518D01*
X141374502Y-122114820D01*
X141315537Y-122004506D01*
X141236185Y-121907815D01*
X141139494Y-121828463D01*
X141029180Y-121769498D01*
X140909482Y-121733188D01*
X140785000Y-121720928D01*
X139985750Y-121724000D01*
X139827000Y-121882750D01*
X139573000Y-121882750D01*
X139414250Y-121724000D01*
X138615000Y-121720928D01*
X138490518Y-121733188D01*
X138370820Y-121769498D01*
X138260506Y-121828463D01*
X138163815Y-121907815D01*
X138084463Y-122004506D01*
X138025498Y-122114820D01*
X137989188Y-122234518D01*
X137976928Y-122359000D01*
X127393700Y-122359000D01*
X127393700Y-102407119D01*
X137558542Y-102407119D01*
X137561000Y-102432073D01*
X137560999Y-104175697D01*
X137558542Y-104200641D01*
X137560999Y-104225585D01*
X137560999Y-104225587D01*
X137568350Y-104300225D01*
X137597398Y-104395983D01*
X137644570Y-104484236D01*
X137708051Y-104561589D01*
X137727434Y-104577496D01*
X154014504Y-120864566D01*
X154030411Y-120883949D01*
X154107764Y-120947430D01*
X154196016Y-120994602D01*
X154291774Y-121023650D01*
X154366412Y-121031001D01*
X154366415Y-121031001D01*
X154391359Y-121033458D01*
X154416303Y-121031001D01*
X155154147Y-121031001D01*
X159472144Y-125348999D01*
X154416303Y-125348999D01*
X154391359Y-125346542D01*
X154366415Y-125348999D01*
X154366412Y-125348999D01*
X154291774Y-125356350D01*
X154196016Y-125385398D01*
X154156522Y-125406508D01*
X154107763Y-125432570D01*
X154053169Y-125477375D01*
X154030411Y-125496051D01*
X154014508Y-125515429D01*
X153455434Y-126074504D01*
X153436051Y-126090411D01*
X153372570Y-126167764D01*
X153325398Y-126256017D01*
X153296350Y-126351775D01*
X153289457Y-126421761D01*
X153286542Y-126451359D01*
X153288999Y-126476304D01*
X153289000Y-127523687D01*
X153286542Y-127548641D01*
X153291899Y-127603023D01*
X153295773Y-127642352D01*
X153296351Y-127648225D01*
X153325399Y-127743984D01*
X153372570Y-127832236D01*
X153418192Y-127887826D01*
X153436052Y-127909589D01*
X153455429Y-127925491D01*
X154014508Y-128484571D01*
X154030411Y-128503949D01*
X154049788Y-128519851D01*
X154107763Y-128567430D01*
X154154935Y-128592644D01*
X154196016Y-128614602D01*
X154291774Y-128643650D01*
X154366412Y-128651001D01*
X154366415Y-128651001D01*
X154391359Y-128653458D01*
X154416303Y-128651001D01*
X156312055Y-128651001D01*
X156336999Y-128653458D01*
X156361943Y-128651001D01*
X156361946Y-128651001D01*
X156436584Y-128643650D01*
X156532342Y-128614602D01*
X156620594Y-128567430D01*
X156697947Y-128503949D01*
X156713853Y-128484567D01*
X157094851Y-128103570D01*
X157094855Y-128103565D01*
X157113185Y-128085235D01*
X157146599Y-128099075D01*
X157367424Y-128143000D01*
X157592576Y-128143000D01*
X157813401Y-128099075D01*
X158021413Y-128012913D01*
X158208620Y-127887826D01*
X158367826Y-127728620D01*
X158492913Y-127541413D01*
X158579075Y-127333401D01*
X158623000Y-127112576D01*
X158623000Y-126887424D01*
X158579075Y-126666599D01*
X158492913Y-126458587D01*
X158430380Y-126364999D01*
X159069620Y-126364999D01*
X159007087Y-126458587D01*
X158920925Y-126666599D01*
X158877000Y-126887424D01*
X158877000Y-127112576D01*
X158920925Y-127333401D01*
X159007087Y-127541413D01*
X159132174Y-127728620D01*
X159291380Y-127887826D01*
X159478587Y-128012913D01*
X159686599Y-128099075D01*
X159907424Y-128143000D01*
X160132576Y-128143000D01*
X160353401Y-128099075D01*
X160561413Y-128012913D01*
X160748620Y-127887826D01*
X160907826Y-127728620D01*
X160930461Y-127694744D01*
X160945398Y-127743983D01*
X160992570Y-127832236D01*
X161056051Y-127909589D01*
X161075434Y-127925496D01*
X161634508Y-128484571D01*
X161650411Y-128503949D01*
X161669788Y-128519851D01*
X161727763Y-128567430D01*
X161774935Y-128592644D01*
X161816016Y-128614602D01*
X161911774Y-128643650D01*
X161986412Y-128651001D01*
X161986415Y-128651001D01*
X162011359Y-128653458D01*
X162036303Y-128651001D01*
X164148055Y-128651001D01*
X164172999Y-128653458D01*
X164197943Y-128651001D01*
X164197946Y-128651001D01*
X164272584Y-128643650D01*
X164368342Y-128614602D01*
X164456594Y-128567430D01*
X164533947Y-128503949D01*
X164549854Y-128484566D01*
X165581718Y-127452702D01*
X168096903Y-127452702D01*
X168168486Y-127696671D01*
X168423996Y-127817571D01*
X168698184Y-127886300D01*
X168980512Y-127900217D01*
X169260130Y-127858787D01*
X169526292Y-127763603D01*
X169651514Y-127696671D01*
X169723097Y-127452702D01*
X168910000Y-126639605D01*
X168096903Y-127452702D01*
X165581718Y-127452702D01*
X167731395Y-125303026D01*
X167734513Y-125334689D01*
X167756299Y-125406508D01*
X167791678Y-125472696D01*
X167822004Y-125509649D01*
X167801023Y-125530630D01*
X167917296Y-125646903D01*
X167673329Y-125718486D01*
X167552429Y-125973996D01*
X167483700Y-126248184D01*
X167469783Y-126530512D01*
X167511213Y-126810130D01*
X167606397Y-127076292D01*
X167673329Y-127201514D01*
X167917298Y-127273097D01*
X168730395Y-126460000D01*
X168716253Y-126445858D01*
X168895858Y-126266253D01*
X168910000Y-126280395D01*
X168924143Y-126266253D01*
X169103748Y-126445858D01*
X169089605Y-126460000D01*
X169902702Y-127273097D01*
X170146671Y-127201514D01*
X170267571Y-126946004D01*
X170333571Y-126682702D01*
X178256903Y-126682702D01*
X178328486Y-126926671D01*
X178583996Y-127047571D01*
X178858184Y-127116300D01*
X179140512Y-127130217D01*
X179420130Y-127088787D01*
X179686292Y-126993603D01*
X179811514Y-126926671D01*
X179883097Y-126682702D01*
X179070000Y-125869605D01*
X178256903Y-126682702D01*
X170333571Y-126682702D01*
X170336300Y-126671816D01*
X170350217Y-126389488D01*
X170308787Y-126109870D01*
X170213603Y-125843708D01*
X170169135Y-125760512D01*
X177629783Y-125760512D01*
X177671213Y-126040130D01*
X177766397Y-126306292D01*
X177833329Y-126431514D01*
X178077298Y-126503097D01*
X178890395Y-125690000D01*
X179249605Y-125690000D01*
X180062702Y-126503097D01*
X180306671Y-126431514D01*
X180427571Y-126176004D01*
X180496300Y-125901816D01*
X180510217Y-125619488D01*
X180468787Y-125339870D01*
X180373603Y-125073708D01*
X180306671Y-124948486D01*
X180062702Y-124876903D01*
X179249605Y-125690000D01*
X178890395Y-125690000D01*
X178077298Y-124876903D01*
X177833329Y-124948486D01*
X177712429Y-125203996D01*
X177643700Y-125478184D01*
X177629783Y-125760512D01*
X170169135Y-125760512D01*
X170146671Y-125718486D01*
X169902704Y-125646903D01*
X170018977Y-125530630D01*
X169997996Y-125509649D01*
X170028322Y-125472696D01*
X170063701Y-125406508D01*
X170085487Y-125334689D01*
X170092843Y-125260000D01*
X170092843Y-123660000D01*
X170085487Y-123585311D01*
X170063701Y-123513492D01*
X170028322Y-123447304D01*
X169980711Y-123389289D01*
X169922696Y-123341678D01*
X169856508Y-123306299D01*
X169784689Y-123284513D01*
X169710000Y-123277157D01*
X168110000Y-123277157D01*
X168035311Y-123284513D01*
X167963492Y-123306299D01*
X167897304Y-123341678D01*
X167839289Y-123389289D01*
X167791678Y-123447304D01*
X167756299Y-123513492D01*
X167734513Y-123585311D01*
X167727157Y-123660000D01*
X167727157Y-123968226D01*
X167660657Y-123988399D01*
X167619576Y-124010357D01*
X167572404Y-124035571D01*
X167536924Y-124064689D01*
X167495052Y-124099052D01*
X167479150Y-124118429D01*
X163962579Y-127635001D01*
X163510380Y-127635001D01*
X163572913Y-127541413D01*
X163659075Y-127333401D01*
X163703000Y-127112576D01*
X163703000Y-126887424D01*
X163659075Y-126666599D01*
X163572913Y-126458587D01*
X163447826Y-126271380D01*
X163288620Y-126112174D01*
X163101413Y-125987087D01*
X162893401Y-125900925D01*
X162672576Y-125857000D01*
X162447424Y-125857000D01*
X162226599Y-125900925D01*
X162193186Y-125914765D01*
X156025235Y-119746814D01*
X156039075Y-119713401D01*
X156083000Y-119492576D01*
X156083000Y-119267424D01*
X156039075Y-119046599D01*
X155952913Y-118838587D01*
X155827826Y-118651380D01*
X155668620Y-118492174D01*
X155481413Y-118367087D01*
X155273401Y-118280925D01*
X155052576Y-118237000D01*
X154827424Y-118237000D01*
X154606599Y-118280925D01*
X154573185Y-118294765D01*
X152868000Y-116589580D01*
X152868000Y-109768000D01*
X153709757Y-109768000D01*
X153760483Y-109890465D01*
X153906145Y-110108463D01*
X154091537Y-110293855D01*
X154291037Y-110427157D01*
X153990000Y-110427157D01*
X153915311Y-110434513D01*
X153843492Y-110456299D01*
X153777304Y-110491678D01*
X153719289Y-110539289D01*
X153671678Y-110597304D01*
X153636299Y-110663492D01*
X153614513Y-110735311D01*
X153607157Y-110810000D01*
X153607157Y-112710000D01*
X153614513Y-112784689D01*
X153636299Y-112856508D01*
X153671678Y-112922696D01*
X153719289Y-112980711D01*
X153777304Y-113028322D01*
X153843492Y-113063701D01*
X153915311Y-113085487D01*
X153990000Y-113092843D01*
X155890000Y-113092843D01*
X155964689Y-113085487D01*
X156036508Y-113063701D01*
X156102696Y-113028322D01*
X156160711Y-112980711D01*
X156208322Y-112922696D01*
X156243701Y-112856508D01*
X156265487Y-112784689D01*
X156272843Y-112710000D01*
X156272843Y-110810000D01*
X156265487Y-110735311D01*
X156243701Y-110663492D01*
X156208322Y-110597304D01*
X156160711Y-110539289D01*
X156102696Y-110491678D01*
X156036508Y-110456299D01*
X155964689Y-110434513D01*
X155890000Y-110427157D01*
X155588963Y-110427157D01*
X155788463Y-110293855D01*
X155973855Y-110108463D01*
X156006303Y-110059901D01*
X160528001Y-110218635D01*
X160528000Y-112121815D01*
X160372658Y-112277157D01*
X160243412Y-112470587D01*
X160154386Y-112685515D01*
X160109000Y-112913682D01*
X160109000Y-113146318D01*
X160154386Y-113374485D01*
X160243412Y-113589413D01*
X160372658Y-113782843D01*
X160537157Y-113947342D01*
X160730587Y-114076588D01*
X160945515Y-114165614D01*
X161173682Y-114211000D01*
X161406318Y-114211000D01*
X161634485Y-114165614D01*
X161849413Y-114076588D01*
X162042843Y-113947342D01*
X162207342Y-113782843D01*
X162336588Y-113589413D01*
X162425614Y-113374485D01*
X162471000Y-113146318D01*
X162471000Y-112913682D01*
X162425614Y-112685515D01*
X162336588Y-112470587D01*
X162207342Y-112277157D01*
X162052000Y-112121815D01*
X162052000Y-110236000D01*
X170688001Y-110236000D01*
X170688000Y-112121815D01*
X170532658Y-112277157D01*
X170403412Y-112470587D01*
X170314386Y-112685515D01*
X170269000Y-112913682D01*
X170269000Y-113146318D01*
X170314386Y-113374485D01*
X170403412Y-113589413D01*
X170479309Y-113703001D01*
X167340691Y-113703001D01*
X167416588Y-113589413D01*
X167505614Y-113374485D01*
X167551000Y-113146318D01*
X167551000Y-112913682D01*
X167505614Y-112685515D01*
X167416588Y-112470587D01*
X167287342Y-112277157D01*
X167122843Y-112112658D01*
X166929413Y-111983412D01*
X166714485Y-111894386D01*
X166486318Y-111849000D01*
X166253682Y-111849000D01*
X166025515Y-111894386D01*
X165810587Y-111983412D01*
X165617157Y-112112658D01*
X165452658Y-112277157D01*
X165323412Y-112470587D01*
X165302116Y-112522000D01*
X163854943Y-112522000D01*
X163829999Y-112519543D01*
X163805055Y-112522000D01*
X163805053Y-112522000D01*
X163730415Y-112529351D01*
X163634657Y-112558399D01*
X163593576Y-112580357D01*
X163546404Y-112605571D01*
X163491810Y-112650376D01*
X163469052Y-112669052D01*
X163453150Y-112688429D01*
X162307429Y-113834150D01*
X162288051Y-113850053D01*
X162272149Y-113869430D01*
X157846814Y-118294765D01*
X157813401Y-118280925D01*
X157592576Y-118237000D01*
X157367424Y-118237000D01*
X157146599Y-118280925D01*
X156938587Y-118367087D01*
X156751380Y-118492174D01*
X156592174Y-118651380D01*
X156467087Y-118838587D01*
X156380925Y-119046599D01*
X156337000Y-119267424D01*
X156337000Y-119492576D01*
X156380925Y-119713401D01*
X156467087Y-119921413D01*
X156592174Y-120108620D01*
X156751380Y-120267826D01*
X156938587Y-120392913D01*
X157146599Y-120479075D01*
X157367424Y-120523000D01*
X157592576Y-120523000D01*
X157813401Y-120479075D01*
X158021413Y-120392913D01*
X158208620Y-120267826D01*
X158367826Y-120108620D01*
X158492913Y-119921413D01*
X158579075Y-119713401D01*
X158623000Y-119492576D01*
X158623000Y-119267424D01*
X158877000Y-119267424D01*
X158877000Y-119492576D01*
X158920925Y-119713401D01*
X159007087Y-119921413D01*
X159132174Y-120108620D01*
X159291380Y-120267826D01*
X159478587Y-120392913D01*
X159686599Y-120479075D01*
X159907424Y-120523000D01*
X160132576Y-120523000D01*
X160353401Y-120479075D01*
X160561413Y-120392913D01*
X160748620Y-120267826D01*
X160907826Y-120108620D01*
X161032913Y-119921413D01*
X161119075Y-119713401D01*
X161163000Y-119492576D01*
X161163000Y-119267424D01*
X161417000Y-119267424D01*
X161417000Y-119492576D01*
X161460925Y-119713401D01*
X161547087Y-119921413D01*
X161672174Y-120108620D01*
X161831380Y-120267826D01*
X162018587Y-120392913D01*
X162226599Y-120479075D01*
X162447424Y-120523000D01*
X162672576Y-120523000D01*
X162893401Y-120479075D01*
X163101413Y-120392913D01*
X163288620Y-120267826D01*
X163447826Y-120108620D01*
X163572913Y-119921413D01*
X163659075Y-119713401D01*
X163703000Y-119492576D01*
X163703000Y-119267424D01*
X163659075Y-119046599D01*
X163572913Y-118838587D01*
X163447826Y-118651380D01*
X163288620Y-118492174D01*
X163101413Y-118367087D01*
X162893401Y-118280925D01*
X162672576Y-118237000D01*
X162447424Y-118237000D01*
X162226599Y-118280925D01*
X162018587Y-118367087D01*
X161831380Y-118492174D01*
X161672174Y-118651380D01*
X161547087Y-118838587D01*
X161460925Y-119046599D01*
X161417000Y-119267424D01*
X161163000Y-119267424D01*
X161119075Y-119046599D01*
X161032913Y-118838587D01*
X160907826Y-118651380D01*
X160748620Y-118492174D01*
X160561413Y-118367087D01*
X160353401Y-118280925D01*
X160132576Y-118237000D01*
X159907424Y-118237000D01*
X159686599Y-118280925D01*
X159478587Y-118367087D01*
X159291380Y-118492174D01*
X159132174Y-118651380D01*
X159007087Y-118838587D01*
X158920925Y-119046599D01*
X158877000Y-119267424D01*
X158623000Y-119267424D01*
X158579075Y-119046599D01*
X158565235Y-119013186D01*
X160238420Y-117340000D01*
X167521928Y-117340000D01*
X167534188Y-117464482D01*
X167570498Y-117584180D01*
X167629463Y-117694494D01*
X167708815Y-117791185D01*
X167805506Y-117870537D01*
X167811093Y-117873523D01*
X167791748Y-117937294D01*
X167774738Y-118110000D01*
X167791748Y-118282706D01*
X167842125Y-118448775D01*
X167923932Y-118601825D01*
X168034025Y-118735975D01*
X168045022Y-118745000D01*
X168034025Y-118754025D01*
X167923932Y-118888175D01*
X167842125Y-119041225D01*
X167791748Y-119207294D01*
X167774738Y-119380000D01*
X167791748Y-119552706D01*
X167842125Y-119718775D01*
X167923932Y-119871825D01*
X168034025Y-120005975D01*
X168168175Y-120116068D01*
X168321225Y-120197875D01*
X168487294Y-120248252D01*
X168616727Y-120261000D01*
X169203273Y-120261000D01*
X169332706Y-120248252D01*
X169498775Y-120197875D01*
X169651825Y-120116068D01*
X169785975Y-120005975D01*
X169896068Y-119871825D01*
X169977875Y-119718775D01*
X170028252Y-119552706D01*
X170045262Y-119380000D01*
X170028252Y-119207294D01*
X169977875Y-119041225D01*
X169896068Y-118888175D01*
X169785975Y-118754025D01*
X169774978Y-118745000D01*
X169785975Y-118735975D01*
X169882794Y-118618000D01*
X169889056Y-118618000D01*
X169914000Y-118620457D01*
X169938944Y-118618000D01*
X169938947Y-118618000D01*
X170013585Y-118610649D01*
X170109343Y-118581601D01*
X170197595Y-118534429D01*
X170274948Y-118470948D01*
X170290855Y-118451565D01*
X172575421Y-116166999D01*
X178099309Y-116166999D01*
X178023412Y-116280587D01*
X177934386Y-116495515D01*
X177889000Y-116723682D01*
X177889000Y-116956318D01*
X177934386Y-117184485D01*
X178023412Y-117399413D01*
X178152658Y-117592843D01*
X178317157Y-117757342D01*
X178510587Y-117886588D01*
X178562000Y-117907884D01*
X178562001Y-122007157D01*
X178270000Y-122007157D01*
X178195311Y-122014513D01*
X178123492Y-122036299D01*
X178057304Y-122071678D01*
X177999289Y-122119289D01*
X177951678Y-122177304D01*
X177916299Y-122243492D01*
X177894513Y-122315311D01*
X177887157Y-122390000D01*
X177887157Y-123990000D01*
X177894513Y-124064689D01*
X177916299Y-124136508D01*
X177951678Y-124202696D01*
X177999289Y-124260711D01*
X178057304Y-124308322D01*
X178123492Y-124343701D01*
X178195311Y-124365487D01*
X178270000Y-124372843D01*
X178491609Y-124372843D01*
X178453708Y-124386397D01*
X178328486Y-124453329D01*
X178256903Y-124697298D01*
X179070000Y-125510395D01*
X179883097Y-124697298D01*
X179811514Y-124453329D01*
X179641415Y-124372843D01*
X179870000Y-124372843D01*
X179944689Y-124365487D01*
X180016508Y-124343701D01*
X180082696Y-124308322D01*
X180140711Y-124260711D01*
X180188322Y-124202696D01*
X180223701Y-124136508D01*
X180245487Y-124064689D01*
X180252843Y-123990000D01*
X180252843Y-122390000D01*
X180245487Y-122315311D01*
X180223701Y-122243492D01*
X180188322Y-122177304D01*
X180140711Y-122119289D01*
X180082696Y-122071678D01*
X180016508Y-122036299D01*
X179944689Y-122014513D01*
X179870000Y-122007157D01*
X179578000Y-122007157D01*
X179578000Y-118066420D01*
X180001153Y-118489573D01*
X180017060Y-118508956D01*
X180094413Y-118572437D01*
X180182665Y-118619609D01*
X180278423Y-118648657D01*
X180353061Y-118656008D01*
X180353064Y-118656008D01*
X180378008Y-118658465D01*
X180402952Y-118656008D01*
X187104930Y-118656008D01*
X187129874Y-118658465D01*
X187154818Y-118656008D01*
X187154821Y-118656008D01*
X187229459Y-118648657D01*
X187325217Y-118619609D01*
X187413469Y-118572437D01*
X187490822Y-118508956D01*
X187506729Y-118489573D01*
X188212566Y-117783736D01*
X188231949Y-117767829D01*
X188295430Y-117690476D01*
X188342602Y-117602224D01*
X188371650Y-117506466D01*
X188379001Y-117431828D01*
X188379001Y-117431825D01*
X188381458Y-117406881D01*
X188379001Y-117381937D01*
X188379001Y-111695944D01*
X188381458Y-111671000D01*
X188379001Y-111646054D01*
X188379001Y-106615944D01*
X188381458Y-106591000D01*
X188377574Y-106551569D01*
X188371650Y-106491416D01*
X188342602Y-106395658D01*
X188329829Y-106371762D01*
X188295430Y-106307405D01*
X188247851Y-106249430D01*
X188231949Y-106230053D01*
X188212571Y-106214150D01*
X187866853Y-105868433D01*
X187866849Y-105868428D01*
X187804318Y-105805897D01*
X187825614Y-105754485D01*
X187871000Y-105526318D01*
X187871000Y-105293682D01*
X187825614Y-105065515D01*
X187736588Y-104850587D01*
X187607342Y-104657157D01*
X187442843Y-104492658D01*
X187249413Y-104363412D01*
X187034485Y-104274386D01*
X186806318Y-104229000D01*
X186573682Y-104229000D01*
X186345515Y-104274386D01*
X186130587Y-104363412D01*
X185937157Y-104492658D01*
X185772658Y-104657157D01*
X185643412Y-104850587D01*
X185554386Y-105065515D01*
X185509000Y-105293682D01*
X185509000Y-105526318D01*
X185554386Y-105754485D01*
X185643412Y-105969413D01*
X185772658Y-106162843D01*
X185937157Y-106327342D01*
X186130587Y-106456588D01*
X186345515Y-106545614D01*
X186573682Y-106591000D01*
X186806318Y-106591000D01*
X187034485Y-106545614D01*
X187085897Y-106524318D01*
X187148428Y-106586849D01*
X187148433Y-106586853D01*
X187363002Y-106801423D01*
X187363002Y-110444581D01*
X182786854Y-105868434D01*
X182786849Y-105868428D01*
X182724318Y-105805897D01*
X182745614Y-105754485D01*
X182791000Y-105526318D01*
X182791000Y-105293682D01*
X182745614Y-105065515D01*
X182656588Y-104850587D01*
X182527342Y-104657157D01*
X182362843Y-104492658D01*
X182169413Y-104363412D01*
X181954485Y-104274386D01*
X181726318Y-104229000D01*
X181493682Y-104229000D01*
X181265515Y-104274386D01*
X181050587Y-104363412D01*
X180857157Y-104492658D01*
X180692658Y-104657157D01*
X180563412Y-104850587D01*
X180474386Y-105065515D01*
X180429000Y-105293682D01*
X180429000Y-105526318D01*
X180474386Y-105754485D01*
X180563412Y-105969413D01*
X180692658Y-106162843D01*
X180857157Y-106327342D01*
X181050587Y-106456588D01*
X181265515Y-106545614D01*
X181493682Y-106591000D01*
X181726318Y-106591000D01*
X181954485Y-106545614D01*
X182005897Y-106524318D01*
X182068428Y-106586849D01*
X182068434Y-106586854D01*
X187154781Y-111673201D01*
X187039039Y-111638096D01*
X186817000Y-111760085D01*
X186817000Y-112903000D01*
X186837000Y-112903000D01*
X186837000Y-113157000D01*
X186817000Y-113157000D01*
X186817000Y-114299915D01*
X187039039Y-114421904D01*
X187173087Y-114381246D01*
X187363001Y-114291484D01*
X187363001Y-115869309D01*
X187249413Y-115793412D01*
X187034485Y-115704386D01*
X186806318Y-115659000D01*
X186573682Y-115659000D01*
X186345515Y-115704386D01*
X186130587Y-115793412D01*
X185937157Y-115922658D01*
X185772658Y-116087157D01*
X185643412Y-116280587D01*
X185554386Y-116495515D01*
X185509000Y-116723682D01*
X185509000Y-116956318D01*
X185543946Y-117131999D01*
X181782422Y-117131999D01*
X179967856Y-115317434D01*
X179951949Y-115298051D01*
X179874596Y-115234570D01*
X179786344Y-115187398D01*
X179690586Y-115158350D01*
X179615948Y-115150999D01*
X179615945Y-115150999D01*
X179591001Y-115148542D01*
X179566057Y-115150999D01*
X172389945Y-115150999D01*
X172365001Y-115148542D01*
X172340057Y-115150999D01*
X172340054Y-115150999D01*
X172265416Y-115158350D01*
X172169658Y-115187398D01*
X172081406Y-115234570D01*
X172004053Y-115298051D01*
X171988146Y-115317434D01*
X170237415Y-117068165D01*
X170136250Y-116967000D01*
X169037000Y-116967000D01*
X169037000Y-116987000D01*
X168783000Y-116987000D01*
X168783000Y-116967000D01*
X167683750Y-116967000D01*
X167525000Y-117125750D01*
X167521928Y-117340000D01*
X160238420Y-117340000D01*
X160417472Y-117160948D01*
X161238420Y-116340000D01*
X167521928Y-116340000D01*
X167525000Y-116554250D01*
X167683750Y-116713000D01*
X168783000Y-116713000D01*
X168783000Y-115863750D01*
X169037000Y-115863750D01*
X169037000Y-116713000D01*
X170136250Y-116713000D01*
X170295000Y-116554250D01*
X170298072Y-116340000D01*
X170285812Y-116215518D01*
X170249502Y-116095820D01*
X170190537Y-115985506D01*
X170111185Y-115888815D01*
X170014494Y-115809463D01*
X169904180Y-115750498D01*
X169784482Y-115714188D01*
X169660000Y-115701928D01*
X169195750Y-115705000D01*
X169037000Y-115863750D01*
X168783000Y-115863750D01*
X168624250Y-115705000D01*
X168160000Y-115701928D01*
X168035518Y-115714188D01*
X167915820Y-115750498D01*
X167805506Y-115809463D01*
X167708815Y-115888815D01*
X167629463Y-115985506D01*
X167570498Y-116095820D01*
X167534188Y-116215518D01*
X167521928Y-116340000D01*
X161238420Y-116340000D01*
X162859420Y-114719001D01*
X177071937Y-114719001D01*
X177096881Y-114721458D01*
X177121825Y-114719001D01*
X177121828Y-114719001D01*
X177196466Y-114711650D01*
X177292224Y-114682602D01*
X177380476Y-114635430D01*
X177457829Y-114571949D01*
X177473736Y-114552566D01*
X178052566Y-113973736D01*
X178071949Y-113957829D01*
X178135430Y-113880476D01*
X178182602Y-113792224D01*
X178211650Y-113696466D01*
X178219001Y-113621828D01*
X178219001Y-113621825D01*
X178221458Y-113596881D01*
X178219001Y-113571937D01*
X178219001Y-112913682D01*
X180429000Y-112913682D01*
X180429000Y-113146318D01*
X180474386Y-113374485D01*
X180563412Y-113589413D01*
X180692658Y-113782843D01*
X180857157Y-113947342D01*
X181050587Y-114076588D01*
X181265515Y-114165614D01*
X181493682Y-114211000D01*
X181726318Y-114211000D01*
X181954485Y-114165614D01*
X182169413Y-114076588D01*
X182362843Y-113947342D01*
X182527342Y-113782843D01*
X182656588Y-113589413D01*
X182743727Y-113379040D01*
X185298091Y-113379040D01*
X185392930Y-113643881D01*
X185537615Y-113885131D01*
X185726586Y-114093519D01*
X185952580Y-114261037D01*
X186206913Y-114381246D01*
X186340961Y-114421904D01*
X186563000Y-114299915D01*
X186563000Y-113157000D01*
X185419376Y-113157000D01*
X185298091Y-113379040D01*
X182743727Y-113379040D01*
X182745614Y-113374485D01*
X182791000Y-113146318D01*
X182791000Y-112913682D01*
X182745614Y-112685515D01*
X182743728Y-112680960D01*
X185298091Y-112680960D01*
X185419376Y-112903000D01*
X186563000Y-112903000D01*
X186563000Y-111760085D01*
X186340961Y-111638096D01*
X186206913Y-111678754D01*
X185952580Y-111798963D01*
X185726586Y-111966481D01*
X185537615Y-112174869D01*
X185392930Y-112416119D01*
X185298091Y-112680960D01*
X182743728Y-112680960D01*
X182656588Y-112470587D01*
X182527342Y-112277157D01*
X182362843Y-112112658D01*
X182169413Y-111983412D01*
X181954485Y-111894386D01*
X181726318Y-111849000D01*
X181493682Y-111849000D01*
X181265515Y-111894386D01*
X181050587Y-111983412D01*
X180857157Y-112112658D01*
X180692658Y-112277157D01*
X180563412Y-112470587D01*
X180474386Y-112685515D01*
X180429000Y-112913682D01*
X178219001Y-112913682D01*
X178219001Y-112488063D01*
X178221458Y-112463119D01*
X178216829Y-112416119D01*
X178211650Y-112363534D01*
X178182602Y-112267776D01*
X178136464Y-112181458D01*
X178135430Y-112179523D01*
X178112355Y-112151407D01*
X178071949Y-112102171D01*
X178052566Y-112086264D01*
X172248244Y-106281942D01*
X172367342Y-106162843D01*
X172496588Y-105969413D01*
X172585614Y-105754485D01*
X172631000Y-105526318D01*
X172631000Y-105293682D01*
X175349000Y-105293682D01*
X175349000Y-105526318D01*
X175394386Y-105754485D01*
X175483412Y-105969413D01*
X175612658Y-106162843D01*
X175777157Y-106327342D01*
X175970587Y-106456588D01*
X176185515Y-106545614D01*
X176413682Y-106591000D01*
X176646318Y-106591000D01*
X176874485Y-106545614D01*
X177089413Y-106456588D01*
X177282843Y-106327342D01*
X177447342Y-106162843D01*
X177576588Y-105969413D01*
X177665614Y-105754485D01*
X177711000Y-105526318D01*
X177711000Y-105293682D01*
X177665614Y-105065515D01*
X177576588Y-104850587D01*
X177447342Y-104657157D01*
X177282843Y-104492658D01*
X177089413Y-104363412D01*
X176874485Y-104274386D01*
X176646318Y-104229000D01*
X176413682Y-104229000D01*
X176185515Y-104274386D01*
X175970587Y-104363412D01*
X175777157Y-104492658D01*
X175612658Y-104657157D01*
X175483412Y-104850587D01*
X175394386Y-105065515D01*
X175349000Y-105293682D01*
X172631000Y-105293682D01*
X172585614Y-105065515D01*
X172496588Y-104850587D01*
X172367342Y-104657157D01*
X172202843Y-104492658D01*
X172009413Y-104363412D01*
X171794485Y-104274386D01*
X171566318Y-104229000D01*
X171333682Y-104229000D01*
X171105515Y-104274386D01*
X170890587Y-104363412D01*
X170697157Y-104492658D01*
X170532658Y-104657157D01*
X170403412Y-104850587D01*
X170314386Y-105065515D01*
X170269000Y-105293682D01*
X170269000Y-105526318D01*
X170314386Y-105754485D01*
X170403412Y-105969413D01*
X170479309Y-106083001D01*
X167340691Y-106083001D01*
X167416588Y-105969413D01*
X167505614Y-105754485D01*
X167551000Y-105526318D01*
X167551000Y-105293682D01*
X167505614Y-105065515D01*
X167416588Y-104850587D01*
X167287342Y-104657157D01*
X167122843Y-104492658D01*
X166929413Y-104363412D01*
X166714485Y-104274386D01*
X166486318Y-104229000D01*
X166253682Y-104229000D01*
X166025515Y-104274386D01*
X165974102Y-104295682D01*
X162895854Y-101217434D01*
X162879947Y-101198051D01*
X162802594Y-101134570D01*
X162714342Y-101087398D01*
X162618584Y-101058350D01*
X162543946Y-101050999D01*
X162543943Y-101050999D01*
X162518999Y-101048542D01*
X162494055Y-101050999D01*
X138942063Y-101050999D01*
X138917119Y-101048542D01*
X138892175Y-101050999D01*
X138892172Y-101050999D01*
X138817534Y-101058350D01*
X138721776Y-101087398D01*
X138633524Y-101134570D01*
X138556171Y-101198051D01*
X138540264Y-101217434D01*
X137727429Y-102030269D01*
X137708052Y-102046171D01*
X137692150Y-102065548D01*
X137692149Y-102065549D01*
X137644570Y-102123524D01*
X137597399Y-102211776D01*
X137568351Y-102307535D01*
X137558542Y-102407119D01*
X127393700Y-102407119D01*
X127393700Y-65140000D01*
X139687157Y-65140000D01*
X139687157Y-66940000D01*
X139694513Y-67014689D01*
X139716299Y-67086508D01*
X139751678Y-67152696D01*
X139799289Y-67210711D01*
X139857304Y-67258322D01*
X139923492Y-67293701D01*
X139995311Y-67315487D01*
X140070000Y-67322843D01*
X141870000Y-67322843D01*
X141944689Y-67315487D01*
X142016508Y-67293701D01*
X142082696Y-67258322D01*
X142140711Y-67210711D01*
X142188322Y-67152696D01*
X142223701Y-67086508D01*
X142245487Y-67014689D01*
X142252843Y-66940000D01*
X142252843Y-65140000D01*
X173977157Y-65140000D01*
X173977157Y-66940000D01*
X173984513Y-67014689D01*
X174006299Y-67086508D01*
X174041678Y-67152696D01*
X174089289Y-67210711D01*
X174147304Y-67258322D01*
X174213492Y-67293701D01*
X174285311Y-67315487D01*
X174360000Y-67322843D01*
X176160000Y-67322843D01*
X176234689Y-67315487D01*
X176306508Y-67293701D01*
X176372696Y-67258322D01*
X176430711Y-67210711D01*
X176478322Y-67152696D01*
X176513701Y-67086508D01*
X176535487Y-67014689D01*
X176542843Y-66940000D01*
X176542843Y-65140000D01*
X176535487Y-65065311D01*
X176513701Y-64993492D01*
X176478322Y-64927304D01*
X176430711Y-64869289D01*
X176372696Y-64821678D01*
X176306508Y-64786299D01*
X176234689Y-64764513D01*
X176160000Y-64757157D01*
X175506034Y-64757157D01*
X175633654Y-64731772D01*
X175866781Y-64635207D01*
X176076590Y-64495018D01*
X176255018Y-64316590D01*
X176395207Y-64106781D01*
X176491772Y-63873654D01*
X176541000Y-63626167D01*
X176541000Y-63373833D01*
X176491772Y-63126346D01*
X176395207Y-62893219D01*
X176255018Y-62683410D01*
X176076590Y-62504982D01*
X175866781Y-62364793D01*
X175633654Y-62268228D01*
X175386167Y-62219000D01*
X175133833Y-62219000D01*
X174886346Y-62268228D01*
X174653219Y-62364793D01*
X174443410Y-62504982D01*
X174264982Y-62683410D01*
X174124793Y-62893219D01*
X174028228Y-63126346D01*
X173979000Y-63373833D01*
X173979000Y-63626167D01*
X174028228Y-63873654D01*
X174124793Y-64106781D01*
X174264982Y-64316590D01*
X174443410Y-64495018D01*
X174653219Y-64635207D01*
X174886346Y-64731772D01*
X175013966Y-64757157D01*
X174360000Y-64757157D01*
X174285311Y-64764513D01*
X174213492Y-64786299D01*
X174147304Y-64821678D01*
X174089289Y-64869289D01*
X174041678Y-64927304D01*
X174006299Y-64993492D01*
X173984513Y-65065311D01*
X173977157Y-65140000D01*
X142252843Y-65140000D01*
X142245487Y-65065311D01*
X142223701Y-64993492D01*
X142188322Y-64927304D01*
X142140711Y-64869289D01*
X142082696Y-64821678D01*
X142016508Y-64786299D01*
X141944689Y-64764513D01*
X141870000Y-64757157D01*
X141216034Y-64757157D01*
X141343654Y-64731772D01*
X141576781Y-64635207D01*
X141786590Y-64495018D01*
X141965018Y-64316590D01*
X142105207Y-64106781D01*
X142201772Y-63873654D01*
X142251000Y-63626167D01*
X142251000Y-63373833D01*
X142201772Y-63126346D01*
X142105207Y-62893219D01*
X141965018Y-62683410D01*
X141786590Y-62504982D01*
X141576781Y-62364793D01*
X141343654Y-62268228D01*
X141096167Y-62219000D01*
X140843833Y-62219000D01*
X140596346Y-62268228D01*
X140363219Y-62364793D01*
X140153410Y-62504982D01*
X139974982Y-62683410D01*
X139834793Y-62893219D01*
X139738228Y-63126346D01*
X139689000Y-63373833D01*
X139689000Y-63626167D01*
X139738228Y-63873654D01*
X139834793Y-64106781D01*
X139974982Y-64316590D01*
X140153410Y-64495018D01*
X140363219Y-64635207D01*
X140596346Y-64731772D01*
X140723966Y-64757157D01*
X140070000Y-64757157D01*
X139995311Y-64764513D01*
X139923492Y-64786299D01*
X139857304Y-64821678D01*
X139799289Y-64869289D01*
X139751678Y-64927304D01*
X139716299Y-64993492D01*
X139694513Y-65065311D01*
X139687157Y-65140000D01*
X127393700Y-65140000D01*
X127393700Y-45824616D01*
X151626966Y-45824616D01*
X151627215Y-45860265D01*
X151626966Y-45895981D01*
X151627503Y-45901452D01*
X151666366Y-46271206D01*
X151673537Y-46306139D01*
X151680227Y-46341211D01*
X151681816Y-46346474D01*
X151791758Y-46701637D01*
X151805583Y-46734527D01*
X151818952Y-46767616D01*
X151821533Y-46772470D01*
X151998365Y-47099515D01*
X152018320Y-47129099D01*
X152037858Y-47158956D01*
X152041332Y-47163216D01*
X152278321Y-47449686D01*
X152303605Y-47474794D01*
X152328606Y-47500324D01*
X152332842Y-47503827D01*
X152620959Y-47738810D01*
X152650645Y-47758534D01*
X152680123Y-47778717D01*
X152684958Y-47781332D01*
X153013230Y-47955877D01*
X153046221Y-47969475D01*
X153079017Y-47983531D01*
X153084269Y-47985157D01*
X153440191Y-48092616D01*
X153475137Y-48099536D01*
X153510099Y-48106967D01*
X153515564Y-48107541D01*
X153515566Y-48107541D01*
X153885582Y-48143821D01*
X153885588Y-48143821D01*
X153904667Y-48145700D01*
X164103333Y-48145700D01*
X164104710Y-48145564D01*
X164113351Y-48145504D01*
X164131133Y-48143635D01*
X164149016Y-48143635D01*
X164154483Y-48143060D01*
X164523957Y-48101617D01*
X164558827Y-48094205D01*
X164593864Y-48087268D01*
X164599115Y-48085642D01*
X164953502Y-47973224D01*
X164986261Y-47959183D01*
X165019290Y-47945570D01*
X165024126Y-47942955D01*
X165349928Y-47763843D01*
X165379341Y-47743704D01*
X165409092Y-47723937D01*
X165413327Y-47720433D01*
X165698135Y-47481451D01*
X165723084Y-47455974D01*
X165748421Y-47430813D01*
X165751895Y-47426553D01*
X165984861Y-47136802D01*
X166004389Y-47106961D01*
X166024354Y-47077361D01*
X166026934Y-47072508D01*
X166199183Y-46743026D01*
X166212549Y-46709944D01*
X166226378Y-46677046D01*
X166227967Y-46671784D01*
X166332939Y-46315118D01*
X166339620Y-46280098D01*
X166346801Y-46245115D01*
X166347337Y-46239644D01*
X166381034Y-45869384D01*
X166380785Y-45833735D01*
X166381034Y-45798019D01*
X166380497Y-45792548D01*
X166341634Y-45422794D01*
X166334466Y-45387874D01*
X166327773Y-45352789D01*
X166326184Y-45347526D01*
X166216242Y-44992362D01*
X166202422Y-44959487D01*
X166189048Y-44926384D01*
X166186467Y-44921530D01*
X166009635Y-44594485D01*
X165989692Y-44564918D01*
X165970142Y-44535043D01*
X165966668Y-44530784D01*
X165729679Y-44244314D01*
X165704378Y-44219189D01*
X165679394Y-44193676D01*
X165675164Y-44190178D01*
X165675158Y-44190172D01*
X165675151Y-44190168D01*
X165387041Y-43955190D01*
X165357373Y-43935478D01*
X165327878Y-43915283D01*
X165323042Y-43912668D01*
X164994770Y-43738123D01*
X164961753Y-43724515D01*
X164928982Y-43710469D01*
X164923731Y-43708843D01*
X164567808Y-43601383D01*
X164532827Y-43594457D01*
X164497901Y-43587033D01*
X164492436Y-43586459D01*
X164492434Y-43586459D01*
X164122418Y-43550179D01*
X164122412Y-43550179D01*
X164103333Y-43548300D01*
X153904667Y-43548300D01*
X153903290Y-43548436D01*
X153894649Y-43548496D01*
X153876867Y-43550365D01*
X153858984Y-43550365D01*
X153853517Y-43550940D01*
X153484043Y-43592383D01*
X153449173Y-43599795D01*
X153414136Y-43606732D01*
X153408885Y-43608358D01*
X153054498Y-43720776D01*
X153021739Y-43734817D01*
X152988710Y-43748430D01*
X152983874Y-43751045D01*
X152658071Y-43930157D01*
X152628625Y-43950319D01*
X152598908Y-43970063D01*
X152594678Y-43973563D01*
X152594672Y-43973567D01*
X152594667Y-43973572D01*
X152309865Y-44212549D01*
X152284916Y-44238026D01*
X152259579Y-44263187D01*
X152256105Y-44267447D01*
X152023139Y-44557198D01*
X152003611Y-44587039D01*
X151983646Y-44616639D01*
X151981065Y-44621493D01*
X151808817Y-44950974D01*
X151795461Y-44984030D01*
X151781622Y-45016953D01*
X151780033Y-45022216D01*
X151675061Y-45378881D01*
X151668385Y-45413878D01*
X151661199Y-45448885D01*
X151660663Y-45454356D01*
X151626966Y-45824616D01*
X127393700Y-45824616D01*
X127393700Y-41795700D01*
X188836300Y-41795700D01*
X188836301Y-129146300D01*
G37*
X188836301Y-129146300D02*
X127393700Y-129146300D01*
X127393700Y-124529000D01*
X137976928Y-124529000D01*
X137989188Y-124653482D01*
X138025498Y-124773180D01*
X138084463Y-124883494D01*
X138163815Y-124980185D01*
X138260506Y-125059537D01*
X138370820Y-125118502D01*
X138490518Y-125154812D01*
X138615000Y-125167072D01*
X139414250Y-125164000D01*
X139573000Y-125005250D01*
X139573000Y-123571000D01*
X139827000Y-123571000D01*
X139827000Y-125005250D01*
X139985750Y-125164000D01*
X140785000Y-125167072D01*
X140909482Y-125154812D01*
X141029180Y-125118502D01*
X141139494Y-125059537D01*
X141236185Y-124980185D01*
X141315537Y-124883494D01*
X141374502Y-124773180D01*
X141410812Y-124653482D01*
X141423072Y-124529000D01*
X141420000Y-123729750D01*
X141261250Y-123571000D01*
X139827000Y-123571000D01*
X139573000Y-123571000D01*
X138138750Y-123571000D01*
X137980000Y-123729750D01*
X137976928Y-124529000D01*
X127393700Y-124529000D01*
X127393700Y-122359000D01*
X137976928Y-122359000D01*
X137980000Y-123158250D01*
X138138750Y-123317000D01*
X139573000Y-123317000D01*
X139573000Y-121882750D01*
X139827000Y-121882750D01*
X139827000Y-123317000D01*
X141261250Y-123317000D01*
X141420000Y-123158250D01*
X141423072Y-122359000D01*
X141410812Y-122234518D01*
X141374502Y-122114820D01*
X141315537Y-122004506D01*
X141236185Y-121907815D01*
X141139494Y-121828463D01*
X141029180Y-121769498D01*
X140909482Y-121733188D01*
X140785000Y-121720928D01*
X139985750Y-121724000D01*
X139827000Y-121882750D01*
X139573000Y-121882750D01*
X139414250Y-121724000D01*
X138615000Y-121720928D01*
X138490518Y-121733188D01*
X138370820Y-121769498D01*
X138260506Y-121828463D01*
X138163815Y-121907815D01*
X138084463Y-122004506D01*
X138025498Y-122114820D01*
X137989188Y-122234518D01*
X137976928Y-122359000D01*
X127393700Y-122359000D01*
X127393700Y-102407119D01*
X137558542Y-102407119D01*
X137561000Y-102432073D01*
X137560999Y-104175697D01*
X137558542Y-104200641D01*
X137560999Y-104225585D01*
X137560999Y-104225587D01*
X137568350Y-104300225D01*
X137597398Y-104395983D01*
X137644570Y-104484236D01*
X137708051Y-104561589D01*
X137727434Y-104577496D01*
X154014504Y-120864566D01*
X154030411Y-120883949D01*
X154107764Y-120947430D01*
X154196016Y-120994602D01*
X154291774Y-121023650D01*
X154366412Y-121031001D01*
X154366415Y-121031001D01*
X154391359Y-121033458D01*
X154416303Y-121031001D01*
X155154147Y-121031001D01*
X159472144Y-125348999D01*
X154416303Y-125348999D01*
X154391359Y-125346542D01*
X154366415Y-125348999D01*
X154366412Y-125348999D01*
X154291774Y-125356350D01*
X154196016Y-125385398D01*
X154156522Y-125406508D01*
X154107763Y-125432570D01*
X154053169Y-125477375D01*
X154030411Y-125496051D01*
X154014508Y-125515429D01*
X153455434Y-126074504D01*
X153436051Y-126090411D01*
X153372570Y-126167764D01*
X153325398Y-126256017D01*
X153296350Y-126351775D01*
X153289457Y-126421761D01*
X153286542Y-126451359D01*
X153288999Y-126476304D01*
X153289000Y-127523687D01*
X153286542Y-127548641D01*
X153291899Y-127603023D01*
X153295773Y-127642352D01*
X153296351Y-127648225D01*
X153325399Y-127743984D01*
X153372570Y-127832236D01*
X153418192Y-127887826D01*
X153436052Y-127909589D01*
X153455429Y-127925491D01*
X154014508Y-128484571D01*
X154030411Y-128503949D01*
X154049788Y-128519851D01*
X154107763Y-128567430D01*
X154154935Y-128592644D01*
X154196016Y-128614602D01*
X154291774Y-128643650D01*
X154366412Y-128651001D01*
X154366415Y-128651001D01*
X154391359Y-128653458D01*
X154416303Y-128651001D01*
X156312055Y-128651001D01*
X156336999Y-128653458D01*
X156361943Y-128651001D01*
X156361946Y-128651001D01*
X156436584Y-128643650D01*
X156532342Y-128614602D01*
X156620594Y-128567430D01*
X156697947Y-128503949D01*
X156713853Y-128484567D01*
X157094851Y-128103570D01*
X157094855Y-128103565D01*
X157113185Y-128085235D01*
X157146599Y-128099075D01*
X157367424Y-128143000D01*
X157592576Y-128143000D01*
X157813401Y-128099075D01*
X158021413Y-128012913D01*
X158208620Y-127887826D01*
X158367826Y-127728620D01*
X158492913Y-127541413D01*
X158579075Y-127333401D01*
X158623000Y-127112576D01*
X158623000Y-126887424D01*
X158579075Y-126666599D01*
X158492913Y-126458587D01*
X158430380Y-126364999D01*
X159069620Y-126364999D01*
X159007087Y-126458587D01*
X158920925Y-126666599D01*
X158877000Y-126887424D01*
X158877000Y-127112576D01*
X158920925Y-127333401D01*
X159007087Y-127541413D01*
X159132174Y-127728620D01*
X159291380Y-127887826D01*
X159478587Y-128012913D01*
X159686599Y-128099075D01*
X159907424Y-128143000D01*
X160132576Y-128143000D01*
X160353401Y-128099075D01*
X160561413Y-128012913D01*
X160748620Y-127887826D01*
X160907826Y-127728620D01*
X160930461Y-127694744D01*
X160945398Y-127743983D01*
X160992570Y-127832236D01*
X161056051Y-127909589D01*
X161075434Y-127925496D01*
X161634508Y-128484571D01*
X161650411Y-128503949D01*
X161669788Y-128519851D01*
X161727763Y-128567430D01*
X161774935Y-128592644D01*
X161816016Y-128614602D01*
X161911774Y-128643650D01*
X161986412Y-128651001D01*
X161986415Y-128651001D01*
X162011359Y-128653458D01*
X162036303Y-128651001D01*
X164148055Y-128651001D01*
X164172999Y-128653458D01*
X164197943Y-128651001D01*
X164197946Y-128651001D01*
X164272584Y-128643650D01*
X164368342Y-128614602D01*
X164456594Y-128567430D01*
X164533947Y-128503949D01*
X164549854Y-128484566D01*
X165581718Y-127452702D01*
X168096903Y-127452702D01*
X168168486Y-127696671D01*
X168423996Y-127817571D01*
X168698184Y-127886300D01*
X168980512Y-127900217D01*
X169260130Y-127858787D01*
X169526292Y-127763603D01*
X169651514Y-127696671D01*
X169723097Y-127452702D01*
X168910000Y-126639605D01*
X168096903Y-127452702D01*
X165581718Y-127452702D01*
X167731395Y-125303026D01*
X167734513Y-125334689D01*
X167756299Y-125406508D01*
X167791678Y-125472696D01*
X167822004Y-125509649D01*
X167801023Y-125530630D01*
X167917296Y-125646903D01*
X167673329Y-125718486D01*
X167552429Y-125973996D01*
X167483700Y-126248184D01*
X167469783Y-126530512D01*
X167511213Y-126810130D01*
X167606397Y-127076292D01*
X167673329Y-127201514D01*
X167917298Y-127273097D01*
X168730395Y-126460000D01*
X168716253Y-126445858D01*
X168895858Y-126266253D01*
X168910000Y-126280395D01*
X168924143Y-126266253D01*
X169103748Y-126445858D01*
X169089605Y-126460000D01*
X169902702Y-127273097D01*
X170146671Y-127201514D01*
X170267571Y-126946004D01*
X170333571Y-126682702D01*
X178256903Y-126682702D01*
X178328486Y-126926671D01*
X178583996Y-127047571D01*
X178858184Y-127116300D01*
X179140512Y-127130217D01*
X179420130Y-127088787D01*
X179686292Y-126993603D01*
X179811514Y-126926671D01*
X179883097Y-126682702D01*
X179070000Y-125869605D01*
X178256903Y-126682702D01*
X170333571Y-126682702D01*
X170336300Y-126671816D01*
X170350217Y-126389488D01*
X170308787Y-126109870D01*
X170213603Y-125843708D01*
X170169135Y-125760512D01*
X177629783Y-125760512D01*
X177671213Y-126040130D01*
X177766397Y-126306292D01*
X177833329Y-126431514D01*
X178077298Y-126503097D01*
X178890395Y-125690000D01*
X179249605Y-125690000D01*
X180062702Y-126503097D01*
X180306671Y-126431514D01*
X180427571Y-126176004D01*
X180496300Y-125901816D01*
X180510217Y-125619488D01*
X180468787Y-125339870D01*
X180373603Y-125073708D01*
X180306671Y-124948486D01*
X180062702Y-124876903D01*
X179249605Y-125690000D01*
X178890395Y-125690000D01*
X178077298Y-124876903D01*
X177833329Y-124948486D01*
X177712429Y-125203996D01*
X177643700Y-125478184D01*
X177629783Y-125760512D01*
X170169135Y-125760512D01*
X170146671Y-125718486D01*
X169902704Y-125646903D01*
X170018977Y-125530630D01*
X169997996Y-125509649D01*
X170028322Y-125472696D01*
X170063701Y-125406508D01*
X170085487Y-125334689D01*
X170092843Y-125260000D01*
X170092843Y-123660000D01*
X170085487Y-123585311D01*
X170063701Y-123513492D01*
X170028322Y-123447304D01*
X169980711Y-123389289D01*
X169922696Y-123341678D01*
X169856508Y-123306299D01*
X169784689Y-123284513D01*
X169710000Y-123277157D01*
X168110000Y-123277157D01*
X168035311Y-123284513D01*
X167963492Y-123306299D01*
X167897304Y-123341678D01*
X167839289Y-123389289D01*
X167791678Y-123447304D01*
X167756299Y-123513492D01*
X167734513Y-123585311D01*
X167727157Y-123660000D01*
X167727157Y-123968226D01*
X167660657Y-123988399D01*
X167619576Y-124010357D01*
X167572404Y-124035571D01*
X167536924Y-124064689D01*
X167495052Y-124099052D01*
X167479150Y-124118429D01*
X163962579Y-127635001D01*
X163510380Y-127635001D01*
X163572913Y-127541413D01*
X163659075Y-127333401D01*
X163703000Y-127112576D01*
X163703000Y-126887424D01*
X163659075Y-126666599D01*
X163572913Y-126458587D01*
X163447826Y-126271380D01*
X163288620Y-126112174D01*
X163101413Y-125987087D01*
X162893401Y-125900925D01*
X162672576Y-125857000D01*
X162447424Y-125857000D01*
X162226599Y-125900925D01*
X162193186Y-125914765D01*
X156025235Y-119746814D01*
X156039075Y-119713401D01*
X156083000Y-119492576D01*
X156083000Y-119267424D01*
X156039075Y-119046599D01*
X155952913Y-118838587D01*
X155827826Y-118651380D01*
X155668620Y-118492174D01*
X155481413Y-118367087D01*
X155273401Y-118280925D01*
X155052576Y-118237000D01*
X154827424Y-118237000D01*
X154606599Y-118280925D01*
X154573185Y-118294765D01*
X152868000Y-116589580D01*
X152868000Y-109768000D01*
X153709757Y-109768000D01*
X153760483Y-109890465D01*
X153906145Y-110108463D01*
X154091537Y-110293855D01*
X154291037Y-110427157D01*
X153990000Y-110427157D01*
X153915311Y-110434513D01*
X153843492Y-110456299D01*
X153777304Y-110491678D01*
X153719289Y-110539289D01*
X153671678Y-110597304D01*
X153636299Y-110663492D01*
X153614513Y-110735311D01*
X153607157Y-110810000D01*
X153607157Y-112710000D01*
X153614513Y-112784689D01*
X153636299Y-112856508D01*
X153671678Y-112922696D01*
X153719289Y-112980711D01*
X153777304Y-113028322D01*
X153843492Y-113063701D01*
X153915311Y-113085487D01*
X153990000Y-113092843D01*
X155890000Y-113092843D01*
X155964689Y-113085487D01*
X156036508Y-113063701D01*
X156102696Y-113028322D01*
X156160711Y-112980711D01*
X156208322Y-112922696D01*
X156243701Y-112856508D01*
X156265487Y-112784689D01*
X156272843Y-112710000D01*
X156272843Y-110810000D01*
X156265487Y-110735311D01*
X156243701Y-110663492D01*
X156208322Y-110597304D01*
X156160711Y-110539289D01*
X156102696Y-110491678D01*
X156036508Y-110456299D01*
X155964689Y-110434513D01*
X155890000Y-110427157D01*
X155588963Y-110427157D01*
X155788463Y-110293855D01*
X155973855Y-110108463D01*
X156006303Y-110059901D01*
X160528001Y-110218635D01*
X160528000Y-112121815D01*
X160372658Y-112277157D01*
X160243412Y-112470587D01*
X160154386Y-112685515D01*
X160109000Y-112913682D01*
X160109000Y-113146318D01*
X160154386Y-113374485D01*
X160243412Y-113589413D01*
X160372658Y-113782843D01*
X160537157Y-113947342D01*
X160730587Y-114076588D01*
X160945515Y-114165614D01*
X161173682Y-114211000D01*
X161406318Y-114211000D01*
X161634485Y-114165614D01*
X161849413Y-114076588D01*
X162042843Y-113947342D01*
X162207342Y-113782843D01*
X162336588Y-113589413D01*
X162425614Y-113374485D01*
X162471000Y-113146318D01*
X162471000Y-112913682D01*
X162425614Y-112685515D01*
X162336588Y-112470587D01*
X162207342Y-112277157D01*
X162052000Y-112121815D01*
X162052000Y-110236000D01*
X170688001Y-110236000D01*
X170688000Y-112121815D01*
X170532658Y-112277157D01*
X170403412Y-112470587D01*
X170314386Y-112685515D01*
X170269000Y-112913682D01*
X170269000Y-113146318D01*
X170314386Y-113374485D01*
X170403412Y-113589413D01*
X170479309Y-113703001D01*
X167340691Y-113703001D01*
X167416588Y-113589413D01*
X167505614Y-113374485D01*
X167551000Y-113146318D01*
X167551000Y-112913682D01*
X167505614Y-112685515D01*
X167416588Y-112470587D01*
X167287342Y-112277157D01*
X167122843Y-112112658D01*
X166929413Y-111983412D01*
X166714485Y-111894386D01*
X166486318Y-111849000D01*
X166253682Y-111849000D01*
X166025515Y-111894386D01*
X165810587Y-111983412D01*
X165617157Y-112112658D01*
X165452658Y-112277157D01*
X165323412Y-112470587D01*
X165302116Y-112522000D01*
X163854943Y-112522000D01*
X163829999Y-112519543D01*
X163805055Y-112522000D01*
X163805053Y-112522000D01*
X163730415Y-112529351D01*
X163634657Y-112558399D01*
X163593576Y-112580357D01*
X163546404Y-112605571D01*
X163491810Y-112650376D01*
X163469052Y-112669052D01*
X163453150Y-112688429D01*
X162307429Y-113834150D01*
X162288051Y-113850053D01*
X162272149Y-113869430D01*
X157846814Y-118294765D01*
X157813401Y-118280925D01*
X157592576Y-118237000D01*
X157367424Y-118237000D01*
X157146599Y-118280925D01*
X156938587Y-118367087D01*
X156751380Y-118492174D01*
X156592174Y-118651380D01*
X156467087Y-118838587D01*
X156380925Y-119046599D01*
X156337000Y-119267424D01*
X156337000Y-119492576D01*
X156380925Y-119713401D01*
X156467087Y-119921413D01*
X156592174Y-120108620D01*
X156751380Y-120267826D01*
X156938587Y-120392913D01*
X157146599Y-120479075D01*
X157367424Y-120523000D01*
X157592576Y-120523000D01*
X157813401Y-120479075D01*
X158021413Y-120392913D01*
X158208620Y-120267826D01*
X158367826Y-120108620D01*
X158492913Y-119921413D01*
X158579075Y-119713401D01*
X158623000Y-119492576D01*
X158623000Y-119267424D01*
X158877000Y-119267424D01*
X158877000Y-119492576D01*
X158920925Y-119713401D01*
X159007087Y-119921413D01*
X159132174Y-120108620D01*
X159291380Y-120267826D01*
X159478587Y-120392913D01*
X159686599Y-120479075D01*
X159907424Y-120523000D01*
X160132576Y-120523000D01*
X160353401Y-120479075D01*
X160561413Y-120392913D01*
X160748620Y-120267826D01*
X160907826Y-120108620D01*
X161032913Y-119921413D01*
X161119075Y-119713401D01*
X161163000Y-119492576D01*
X161163000Y-119267424D01*
X161417000Y-119267424D01*
X161417000Y-119492576D01*
X161460925Y-119713401D01*
X161547087Y-119921413D01*
X161672174Y-120108620D01*
X161831380Y-120267826D01*
X162018587Y-120392913D01*
X162226599Y-120479075D01*
X162447424Y-120523000D01*
X162672576Y-120523000D01*
X162893401Y-120479075D01*
X163101413Y-120392913D01*
X163288620Y-120267826D01*
X163447826Y-120108620D01*
X163572913Y-119921413D01*
X163659075Y-119713401D01*
X163703000Y-119492576D01*
X163703000Y-119267424D01*
X163659075Y-119046599D01*
X163572913Y-118838587D01*
X163447826Y-118651380D01*
X163288620Y-118492174D01*
X163101413Y-118367087D01*
X162893401Y-118280925D01*
X162672576Y-118237000D01*
X162447424Y-118237000D01*
X162226599Y-118280925D01*
X162018587Y-118367087D01*
X161831380Y-118492174D01*
X161672174Y-118651380D01*
X161547087Y-118838587D01*
X161460925Y-119046599D01*
X161417000Y-119267424D01*
X161163000Y-119267424D01*
X161119075Y-119046599D01*
X161032913Y-118838587D01*
X160907826Y-118651380D01*
X160748620Y-118492174D01*
X160561413Y-118367087D01*
X160353401Y-118280925D01*
X160132576Y-118237000D01*
X159907424Y-118237000D01*
X159686599Y-118280925D01*
X159478587Y-118367087D01*
X159291380Y-118492174D01*
X159132174Y-118651380D01*
X159007087Y-118838587D01*
X158920925Y-119046599D01*
X158877000Y-119267424D01*
X158623000Y-119267424D01*
X158579075Y-119046599D01*
X158565235Y-119013186D01*
X160238420Y-117340000D01*
X167521928Y-117340000D01*
X167534188Y-117464482D01*
X167570498Y-117584180D01*
X167629463Y-117694494D01*
X167708815Y-117791185D01*
X167805506Y-117870537D01*
X167811093Y-117873523D01*
X167791748Y-117937294D01*
X167774738Y-118110000D01*
X167791748Y-118282706D01*
X167842125Y-118448775D01*
X167923932Y-118601825D01*
X168034025Y-118735975D01*
X168045022Y-118745000D01*
X168034025Y-118754025D01*
X167923932Y-118888175D01*
X167842125Y-119041225D01*
X167791748Y-119207294D01*
X167774738Y-119380000D01*
X167791748Y-119552706D01*
X167842125Y-119718775D01*
X167923932Y-119871825D01*
X168034025Y-120005975D01*
X168168175Y-120116068D01*
X168321225Y-120197875D01*
X168487294Y-120248252D01*
X168616727Y-120261000D01*
X169203273Y-120261000D01*
X169332706Y-120248252D01*
X169498775Y-120197875D01*
X169651825Y-120116068D01*
X169785975Y-120005975D01*
X169896068Y-119871825D01*
X169977875Y-119718775D01*
X170028252Y-119552706D01*
X170045262Y-119380000D01*
X170028252Y-119207294D01*
X169977875Y-119041225D01*
X169896068Y-118888175D01*
X169785975Y-118754025D01*
X169774978Y-118745000D01*
X169785975Y-118735975D01*
X169882794Y-118618000D01*
X169889056Y-118618000D01*
X169914000Y-118620457D01*
X169938944Y-118618000D01*
X169938947Y-118618000D01*
X170013585Y-118610649D01*
X170109343Y-118581601D01*
X170197595Y-118534429D01*
X170274948Y-118470948D01*
X170290855Y-118451565D01*
X172575421Y-116166999D01*
X178099309Y-116166999D01*
X178023412Y-116280587D01*
X177934386Y-116495515D01*
X177889000Y-116723682D01*
X177889000Y-116956318D01*
X177934386Y-117184485D01*
X178023412Y-117399413D01*
X178152658Y-117592843D01*
X178317157Y-117757342D01*
X178510587Y-117886588D01*
X178562000Y-117907884D01*
X178562001Y-122007157D01*
X178270000Y-122007157D01*
X178195311Y-122014513D01*
X178123492Y-122036299D01*
X178057304Y-122071678D01*
X177999289Y-122119289D01*
X177951678Y-122177304D01*
X177916299Y-122243492D01*
X177894513Y-122315311D01*
X177887157Y-122390000D01*
X177887157Y-123990000D01*
X177894513Y-124064689D01*
X177916299Y-124136508D01*
X177951678Y-124202696D01*
X177999289Y-124260711D01*
X178057304Y-124308322D01*
X178123492Y-124343701D01*
X178195311Y-124365487D01*
X178270000Y-124372843D01*
X178491609Y-124372843D01*
X178453708Y-124386397D01*
X178328486Y-124453329D01*
X178256903Y-124697298D01*
X179070000Y-125510395D01*
X179883097Y-124697298D01*
X179811514Y-124453329D01*
X179641415Y-124372843D01*
X179870000Y-124372843D01*
X179944689Y-124365487D01*
X180016508Y-124343701D01*
X180082696Y-124308322D01*
X180140711Y-124260711D01*
X180188322Y-124202696D01*
X180223701Y-124136508D01*
X180245487Y-124064689D01*
X180252843Y-123990000D01*
X180252843Y-122390000D01*
X180245487Y-122315311D01*
X180223701Y-122243492D01*
X180188322Y-122177304D01*
X180140711Y-122119289D01*
X180082696Y-122071678D01*
X180016508Y-122036299D01*
X179944689Y-122014513D01*
X179870000Y-122007157D01*
X179578000Y-122007157D01*
X179578000Y-118066420D01*
X180001153Y-118489573D01*
X180017060Y-118508956D01*
X180094413Y-118572437D01*
X180182665Y-118619609D01*
X180278423Y-118648657D01*
X180353061Y-118656008D01*
X180353064Y-118656008D01*
X180378008Y-118658465D01*
X180402952Y-118656008D01*
X187104930Y-118656008D01*
X187129874Y-118658465D01*
X187154818Y-118656008D01*
X187154821Y-118656008D01*
X187229459Y-118648657D01*
X187325217Y-118619609D01*
X187413469Y-118572437D01*
X187490822Y-118508956D01*
X187506729Y-118489573D01*
X188212566Y-117783736D01*
X188231949Y-117767829D01*
X188295430Y-117690476D01*
X188342602Y-117602224D01*
X188371650Y-117506466D01*
X188379001Y-117431828D01*
X188379001Y-117431825D01*
X188381458Y-117406881D01*
X188379001Y-117381937D01*
X188379001Y-111695944D01*
X188381458Y-111671000D01*
X188379001Y-111646054D01*
X188379001Y-106615944D01*
X188381458Y-106591000D01*
X188377574Y-106551569D01*
X188371650Y-106491416D01*
X188342602Y-106395658D01*
X188329829Y-106371762D01*
X188295430Y-106307405D01*
X188247851Y-106249430D01*
X188231949Y-106230053D01*
X188212571Y-106214150D01*
X187866853Y-105868433D01*
X187866849Y-105868428D01*
X187804318Y-105805897D01*
X187825614Y-105754485D01*
X187871000Y-105526318D01*
X187871000Y-105293682D01*
X187825614Y-105065515D01*
X187736588Y-104850587D01*
X187607342Y-104657157D01*
X187442843Y-104492658D01*
X187249413Y-104363412D01*
X187034485Y-104274386D01*
X186806318Y-104229000D01*
X186573682Y-104229000D01*
X186345515Y-104274386D01*
X186130587Y-104363412D01*
X185937157Y-104492658D01*
X185772658Y-104657157D01*
X185643412Y-104850587D01*
X185554386Y-105065515D01*
X185509000Y-105293682D01*
X185509000Y-105526318D01*
X185554386Y-105754485D01*
X185643412Y-105969413D01*
X185772658Y-106162843D01*
X185937157Y-106327342D01*
X186130587Y-106456588D01*
X186345515Y-106545614D01*
X186573682Y-106591000D01*
X186806318Y-106591000D01*
X187034485Y-106545614D01*
X187085897Y-106524318D01*
X187148428Y-106586849D01*
X187148433Y-106586853D01*
X187363002Y-106801423D01*
X187363002Y-110444581D01*
X182786854Y-105868434D01*
X182786849Y-105868428D01*
X182724318Y-105805897D01*
X182745614Y-105754485D01*
X182791000Y-105526318D01*
X182791000Y-105293682D01*
X182745614Y-105065515D01*
X182656588Y-104850587D01*
X182527342Y-104657157D01*
X182362843Y-104492658D01*
X182169413Y-104363412D01*
X181954485Y-104274386D01*
X181726318Y-104229000D01*
X181493682Y-104229000D01*
X181265515Y-104274386D01*
X181050587Y-104363412D01*
X180857157Y-104492658D01*
X180692658Y-104657157D01*
X180563412Y-104850587D01*
X180474386Y-105065515D01*
X180429000Y-105293682D01*
X180429000Y-105526318D01*
X180474386Y-105754485D01*
X180563412Y-105969413D01*
X180692658Y-106162843D01*
X180857157Y-106327342D01*
X181050587Y-106456588D01*
X181265515Y-106545614D01*
X181493682Y-106591000D01*
X181726318Y-106591000D01*
X181954485Y-106545614D01*
X182005897Y-106524318D01*
X182068428Y-106586849D01*
X182068434Y-106586854D01*
X187154781Y-111673201D01*
X187039039Y-111638096D01*
X186817000Y-111760085D01*
X186817000Y-112903000D01*
X186837000Y-112903000D01*
X186837000Y-113157000D01*
X186817000Y-113157000D01*
X186817000Y-114299915D01*
X187039039Y-114421904D01*
X187173087Y-114381246D01*
X187363001Y-114291484D01*
X187363001Y-115869309D01*
X187249413Y-115793412D01*
X187034485Y-115704386D01*
X186806318Y-115659000D01*
X186573682Y-115659000D01*
X186345515Y-115704386D01*
X186130587Y-115793412D01*
X185937157Y-115922658D01*
X185772658Y-116087157D01*
X185643412Y-116280587D01*
X185554386Y-116495515D01*
X185509000Y-116723682D01*
X185509000Y-116956318D01*
X185543946Y-117131999D01*
X181782422Y-117131999D01*
X179967856Y-115317434D01*
X179951949Y-115298051D01*
X179874596Y-115234570D01*
X179786344Y-115187398D01*
X179690586Y-115158350D01*
X179615948Y-115150999D01*
X179615945Y-115150999D01*
X179591001Y-115148542D01*
X179566057Y-115150999D01*
X172389945Y-115150999D01*
X172365001Y-115148542D01*
X172340057Y-115150999D01*
X172340054Y-115150999D01*
X172265416Y-115158350D01*
X172169658Y-115187398D01*
X172081406Y-115234570D01*
X172004053Y-115298051D01*
X171988146Y-115317434D01*
X170237415Y-117068165D01*
X170136250Y-116967000D01*
X169037000Y-116967000D01*
X169037000Y-116987000D01*
X168783000Y-116987000D01*
X168783000Y-116967000D01*
X167683750Y-116967000D01*
X167525000Y-117125750D01*
X167521928Y-117340000D01*
X160238420Y-117340000D01*
X160417472Y-117160948D01*
X161238420Y-116340000D01*
X167521928Y-116340000D01*
X167525000Y-116554250D01*
X167683750Y-116713000D01*
X168783000Y-116713000D01*
X168783000Y-115863750D01*
X169037000Y-115863750D01*
X169037000Y-116713000D01*
X170136250Y-116713000D01*
X170295000Y-116554250D01*
X170298072Y-116340000D01*
X170285812Y-116215518D01*
X170249502Y-116095820D01*
X170190537Y-115985506D01*
X170111185Y-115888815D01*
X170014494Y-115809463D01*
X169904180Y-115750498D01*
X169784482Y-115714188D01*
X169660000Y-115701928D01*
X169195750Y-115705000D01*
X169037000Y-115863750D01*
X168783000Y-115863750D01*
X168624250Y-115705000D01*
X168160000Y-115701928D01*
X168035518Y-115714188D01*
X167915820Y-115750498D01*
X167805506Y-115809463D01*
X167708815Y-115888815D01*
X167629463Y-115985506D01*
X167570498Y-116095820D01*
X167534188Y-116215518D01*
X167521928Y-116340000D01*
X161238420Y-116340000D01*
X162859420Y-114719001D01*
X177071937Y-114719001D01*
X177096881Y-114721458D01*
X177121825Y-114719001D01*
X177121828Y-114719001D01*
X177196466Y-114711650D01*
X177292224Y-114682602D01*
X177380476Y-114635430D01*
X177457829Y-114571949D01*
X177473736Y-114552566D01*
X178052566Y-113973736D01*
X178071949Y-113957829D01*
X178135430Y-113880476D01*
X178182602Y-113792224D01*
X178211650Y-113696466D01*
X178219001Y-113621828D01*
X178219001Y-113621825D01*
X178221458Y-113596881D01*
X178219001Y-113571937D01*
X178219001Y-112913682D01*
X180429000Y-112913682D01*
X180429000Y-113146318D01*
X180474386Y-113374485D01*
X180563412Y-113589413D01*
X180692658Y-113782843D01*
X180857157Y-113947342D01*
X181050587Y-114076588D01*
X181265515Y-114165614D01*
X181493682Y-114211000D01*
X181726318Y-114211000D01*
X181954485Y-114165614D01*
X182169413Y-114076588D01*
X182362843Y-113947342D01*
X182527342Y-113782843D01*
X182656588Y-113589413D01*
X182743727Y-113379040D01*
X185298091Y-113379040D01*
X185392930Y-113643881D01*
X185537615Y-113885131D01*
X185726586Y-114093519D01*
X185952580Y-114261037D01*
X186206913Y-114381246D01*
X186340961Y-114421904D01*
X186563000Y-114299915D01*
X186563000Y-113157000D01*
X185419376Y-113157000D01*
X185298091Y-113379040D01*
X182743727Y-113379040D01*
X182745614Y-113374485D01*
X182791000Y-113146318D01*
X182791000Y-112913682D01*
X182745614Y-112685515D01*
X182743728Y-112680960D01*
X185298091Y-112680960D01*
X185419376Y-112903000D01*
X186563000Y-112903000D01*
X186563000Y-111760085D01*
X186340961Y-111638096D01*
X186206913Y-111678754D01*
X185952580Y-111798963D01*
X185726586Y-111966481D01*
X185537615Y-112174869D01*
X185392930Y-112416119D01*
X185298091Y-112680960D01*
X182743728Y-112680960D01*
X182656588Y-112470587D01*
X182527342Y-112277157D01*
X182362843Y-112112658D01*
X182169413Y-111983412D01*
X181954485Y-111894386D01*
X181726318Y-111849000D01*
X181493682Y-111849000D01*
X181265515Y-111894386D01*
X181050587Y-111983412D01*
X180857157Y-112112658D01*
X180692658Y-112277157D01*
X180563412Y-112470587D01*
X180474386Y-112685515D01*
X180429000Y-112913682D01*
X178219001Y-112913682D01*
X178219001Y-112488063D01*
X178221458Y-112463119D01*
X178216829Y-112416119D01*
X178211650Y-112363534D01*
X178182602Y-112267776D01*
X178136464Y-112181458D01*
X178135430Y-112179523D01*
X178112355Y-112151407D01*
X178071949Y-112102171D01*
X178052566Y-112086264D01*
X172248244Y-106281942D01*
X172367342Y-106162843D01*
X172496588Y-105969413D01*
X172585614Y-105754485D01*
X172631000Y-105526318D01*
X172631000Y-105293682D01*
X175349000Y-105293682D01*
X175349000Y-105526318D01*
X175394386Y-105754485D01*
X175483412Y-105969413D01*
X175612658Y-106162843D01*
X175777157Y-106327342D01*
X175970587Y-106456588D01*
X176185515Y-106545614D01*
X176413682Y-106591000D01*
X176646318Y-106591000D01*
X176874485Y-106545614D01*
X177089413Y-106456588D01*
X177282843Y-106327342D01*
X177447342Y-106162843D01*
X177576588Y-105969413D01*
X177665614Y-105754485D01*
X177711000Y-105526318D01*
X177711000Y-105293682D01*
X177665614Y-105065515D01*
X177576588Y-104850587D01*
X177447342Y-104657157D01*
X177282843Y-104492658D01*
X177089413Y-104363412D01*
X176874485Y-104274386D01*
X176646318Y-104229000D01*
X176413682Y-104229000D01*
X176185515Y-104274386D01*
X175970587Y-104363412D01*
X175777157Y-104492658D01*
X175612658Y-104657157D01*
X175483412Y-104850587D01*
X175394386Y-105065515D01*
X175349000Y-105293682D01*
X172631000Y-105293682D01*
X172585614Y-105065515D01*
X172496588Y-104850587D01*
X172367342Y-104657157D01*
X172202843Y-104492658D01*
X172009413Y-104363412D01*
X171794485Y-104274386D01*
X171566318Y-104229000D01*
X171333682Y-104229000D01*
X171105515Y-104274386D01*
X170890587Y-104363412D01*
X170697157Y-104492658D01*
X170532658Y-104657157D01*
X170403412Y-104850587D01*
X170314386Y-105065515D01*
X170269000Y-105293682D01*
X170269000Y-105526318D01*
X170314386Y-105754485D01*
X170403412Y-105969413D01*
X170479309Y-106083001D01*
X167340691Y-106083001D01*
X167416588Y-105969413D01*
X167505614Y-105754485D01*
X167551000Y-105526318D01*
X167551000Y-105293682D01*
X167505614Y-105065515D01*
X167416588Y-104850587D01*
X167287342Y-104657157D01*
X167122843Y-104492658D01*
X166929413Y-104363412D01*
X166714485Y-104274386D01*
X166486318Y-104229000D01*
X166253682Y-104229000D01*
X166025515Y-104274386D01*
X165974102Y-104295682D01*
X162895854Y-101217434D01*
X162879947Y-101198051D01*
X162802594Y-101134570D01*
X162714342Y-101087398D01*
X162618584Y-101058350D01*
X162543946Y-101050999D01*
X162543943Y-101050999D01*
X162518999Y-101048542D01*
X162494055Y-101050999D01*
X138942063Y-101050999D01*
X138917119Y-101048542D01*
X138892175Y-101050999D01*
X138892172Y-101050999D01*
X138817534Y-101058350D01*
X138721776Y-101087398D01*
X138633524Y-101134570D01*
X138556171Y-101198051D01*
X138540264Y-101217434D01*
X137727429Y-102030269D01*
X137708052Y-102046171D01*
X137692150Y-102065548D01*
X137692149Y-102065549D01*
X137644570Y-102123524D01*
X137597399Y-102211776D01*
X137568351Y-102307535D01*
X137558542Y-102407119D01*
X127393700Y-102407119D01*
X127393700Y-65140000D01*
X139687157Y-65140000D01*
X139687157Y-66940000D01*
X139694513Y-67014689D01*
X139716299Y-67086508D01*
X139751678Y-67152696D01*
X139799289Y-67210711D01*
X139857304Y-67258322D01*
X139923492Y-67293701D01*
X139995311Y-67315487D01*
X140070000Y-67322843D01*
X141870000Y-67322843D01*
X141944689Y-67315487D01*
X142016508Y-67293701D01*
X142082696Y-67258322D01*
X142140711Y-67210711D01*
X142188322Y-67152696D01*
X142223701Y-67086508D01*
X142245487Y-67014689D01*
X142252843Y-66940000D01*
X142252843Y-65140000D01*
X173977157Y-65140000D01*
X173977157Y-66940000D01*
X173984513Y-67014689D01*
X174006299Y-67086508D01*
X174041678Y-67152696D01*
X174089289Y-67210711D01*
X174147304Y-67258322D01*
X174213492Y-67293701D01*
X174285311Y-67315487D01*
X174360000Y-67322843D01*
X176160000Y-67322843D01*
X176234689Y-67315487D01*
X176306508Y-67293701D01*
X176372696Y-67258322D01*
X176430711Y-67210711D01*
X176478322Y-67152696D01*
X176513701Y-67086508D01*
X176535487Y-67014689D01*
X176542843Y-66940000D01*
X176542843Y-65140000D01*
X176535487Y-65065311D01*
X176513701Y-64993492D01*
X176478322Y-64927304D01*
X176430711Y-64869289D01*
X176372696Y-64821678D01*
X176306508Y-64786299D01*
X176234689Y-64764513D01*
X176160000Y-64757157D01*
X175506034Y-64757157D01*
X175633654Y-64731772D01*
X175866781Y-64635207D01*
X176076590Y-64495018D01*
X176255018Y-64316590D01*
X176395207Y-64106781D01*
X176491772Y-63873654D01*
X176541000Y-63626167D01*
X176541000Y-63373833D01*
X176491772Y-63126346D01*
X176395207Y-62893219D01*
X176255018Y-62683410D01*
X176076590Y-62504982D01*
X175866781Y-62364793D01*
X175633654Y-62268228D01*
X175386167Y-62219000D01*
X175133833Y-62219000D01*
X174886346Y-62268228D01*
X174653219Y-62364793D01*
X174443410Y-62504982D01*
X174264982Y-62683410D01*
X174124793Y-62893219D01*
X174028228Y-63126346D01*
X173979000Y-63373833D01*
X173979000Y-63626167D01*
X174028228Y-63873654D01*
X174124793Y-64106781D01*
X174264982Y-64316590D01*
X174443410Y-64495018D01*
X174653219Y-64635207D01*
X174886346Y-64731772D01*
X175013966Y-64757157D01*
X174360000Y-64757157D01*
X174285311Y-64764513D01*
X174213492Y-64786299D01*
X174147304Y-64821678D01*
X174089289Y-64869289D01*
X174041678Y-64927304D01*
X174006299Y-64993492D01*
X173984513Y-65065311D01*
X173977157Y-65140000D01*
X142252843Y-65140000D01*
X142245487Y-65065311D01*
X142223701Y-64993492D01*
X142188322Y-64927304D01*
X142140711Y-64869289D01*
X142082696Y-64821678D01*
X142016508Y-64786299D01*
X141944689Y-64764513D01*
X141870000Y-64757157D01*
X141216034Y-64757157D01*
X141343654Y-64731772D01*
X141576781Y-64635207D01*
X141786590Y-64495018D01*
X141965018Y-64316590D01*
X142105207Y-64106781D01*
X142201772Y-63873654D01*
X142251000Y-63626167D01*
X142251000Y-63373833D01*
X142201772Y-63126346D01*
X142105207Y-62893219D01*
X141965018Y-62683410D01*
X141786590Y-62504982D01*
X141576781Y-62364793D01*
X141343654Y-62268228D01*
X141096167Y-62219000D01*
X140843833Y-62219000D01*
X140596346Y-62268228D01*
X140363219Y-62364793D01*
X140153410Y-62504982D01*
X139974982Y-62683410D01*
X139834793Y-62893219D01*
X139738228Y-63126346D01*
X139689000Y-63373833D01*
X139689000Y-63626167D01*
X139738228Y-63873654D01*
X139834793Y-64106781D01*
X139974982Y-64316590D01*
X140153410Y-64495018D01*
X140363219Y-64635207D01*
X140596346Y-64731772D01*
X140723966Y-64757157D01*
X140070000Y-64757157D01*
X139995311Y-64764513D01*
X139923492Y-64786299D01*
X139857304Y-64821678D01*
X139799289Y-64869289D01*
X139751678Y-64927304D01*
X139716299Y-64993492D01*
X139694513Y-65065311D01*
X139687157Y-65140000D01*
X127393700Y-65140000D01*
X127393700Y-45824616D01*
X151626966Y-45824616D01*
X151627215Y-45860265D01*
X151626966Y-45895981D01*
X151627503Y-45901452D01*
X151666366Y-46271206D01*
X151673537Y-46306139D01*
X151680227Y-46341211D01*
X151681816Y-46346474D01*
X151791758Y-46701637D01*
X151805583Y-46734527D01*
X151818952Y-46767616D01*
X151821533Y-46772470D01*
X151998365Y-47099515D01*
X152018320Y-47129099D01*
X152037858Y-47158956D01*
X152041332Y-47163216D01*
X152278321Y-47449686D01*
X152303605Y-47474794D01*
X152328606Y-47500324D01*
X152332842Y-47503827D01*
X152620959Y-47738810D01*
X152650645Y-47758534D01*
X152680123Y-47778717D01*
X152684958Y-47781332D01*
X153013230Y-47955877D01*
X153046221Y-47969475D01*
X153079017Y-47983531D01*
X153084269Y-47985157D01*
X153440191Y-48092616D01*
X153475137Y-48099536D01*
X153510099Y-48106967D01*
X153515564Y-48107541D01*
X153515566Y-48107541D01*
X153885582Y-48143821D01*
X153885588Y-48143821D01*
X153904667Y-48145700D01*
X164103333Y-48145700D01*
X164104710Y-48145564D01*
X164113351Y-48145504D01*
X164131133Y-48143635D01*
X164149016Y-48143635D01*
X164154483Y-48143060D01*
X164523957Y-48101617D01*
X164558827Y-48094205D01*
X164593864Y-48087268D01*
X164599115Y-48085642D01*
X164953502Y-47973224D01*
X164986261Y-47959183D01*
X165019290Y-47945570D01*
X165024126Y-47942955D01*
X165349928Y-47763843D01*
X165379341Y-47743704D01*
X165409092Y-47723937D01*
X165413327Y-47720433D01*
X165698135Y-47481451D01*
X165723084Y-47455974D01*
X165748421Y-47430813D01*
X165751895Y-47426553D01*
X165984861Y-47136802D01*
X166004389Y-47106961D01*
X166024354Y-47077361D01*
X166026934Y-47072508D01*
X166199183Y-46743026D01*
X166212549Y-46709944D01*
X166226378Y-46677046D01*
X166227967Y-46671784D01*
X166332939Y-46315118D01*
X166339620Y-46280098D01*
X166346801Y-46245115D01*
X166347337Y-46239644D01*
X166381034Y-45869384D01*
X166380785Y-45833735D01*
X166381034Y-45798019D01*
X166380497Y-45792548D01*
X166341634Y-45422794D01*
X166334466Y-45387874D01*
X166327773Y-45352789D01*
X166326184Y-45347526D01*
X166216242Y-44992362D01*
X166202422Y-44959487D01*
X166189048Y-44926384D01*
X166186467Y-44921530D01*
X166009635Y-44594485D01*
X165989692Y-44564918D01*
X165970142Y-44535043D01*
X165966668Y-44530784D01*
X165729679Y-44244314D01*
X165704378Y-44219189D01*
X165679394Y-44193676D01*
X165675164Y-44190178D01*
X165675158Y-44190172D01*
X165675151Y-44190168D01*
X165387041Y-43955190D01*
X165357373Y-43935478D01*
X165327878Y-43915283D01*
X165323042Y-43912668D01*
X164994770Y-43738123D01*
X164961753Y-43724515D01*
X164928982Y-43710469D01*
X164923731Y-43708843D01*
X164567808Y-43601383D01*
X164532827Y-43594457D01*
X164497901Y-43587033D01*
X164492436Y-43586459D01*
X164492434Y-43586459D01*
X164122418Y-43550179D01*
X164122412Y-43550179D01*
X164103333Y-43548300D01*
X153904667Y-43548300D01*
X153903290Y-43548436D01*
X153894649Y-43548496D01*
X153876867Y-43550365D01*
X153858984Y-43550365D01*
X153853517Y-43550940D01*
X153484043Y-43592383D01*
X153449173Y-43599795D01*
X153414136Y-43606732D01*
X153408885Y-43608358D01*
X153054498Y-43720776D01*
X153021739Y-43734817D01*
X152988710Y-43748430D01*
X152983874Y-43751045D01*
X152658071Y-43930157D01*
X152628625Y-43950319D01*
X152598908Y-43970063D01*
X152594678Y-43973563D01*
X152594672Y-43973567D01*
X152594667Y-43973572D01*
X152309865Y-44212549D01*
X152284916Y-44238026D01*
X152259579Y-44263187D01*
X152256105Y-44267447D01*
X152023139Y-44557198D01*
X152003611Y-44587039D01*
X151983646Y-44616639D01*
X151981065Y-44621493D01*
X151808817Y-44950974D01*
X151795461Y-44984030D01*
X151781622Y-45016953D01*
X151780033Y-45022216D01*
X151675061Y-45378881D01*
X151668385Y-45413878D01*
X151661199Y-45448885D01*
X151660663Y-45454356D01*
X151626966Y-45824616D01*
X127393700Y-45824616D01*
X127393700Y-41795700D01*
X188836300Y-41795700D01*
X188836301Y-129146300D01*
G36*
X155133748Y-126985858D02*
G01*
X155119605Y-127000000D01*
X155133748Y-127014143D01*
X154954143Y-127193748D01*
X154940000Y-127179605D01*
X154925858Y-127193748D01*
X154746253Y-127014143D01*
X154760395Y-127000000D01*
X154746253Y-126985858D01*
X154925858Y-126806253D01*
X154940000Y-126820395D01*
X154954143Y-126806253D01*
X155133748Y-126985858D01*
G37*
X155133748Y-126985858D02*
X155119605Y-127000000D01*
X155133748Y-127014143D01*
X154954143Y-127193748D01*
X154940000Y-127179605D01*
X154925858Y-127193748D01*
X154746253Y-127014143D01*
X154760395Y-127000000D01*
X154746253Y-126985858D01*
X154925858Y-126806253D01*
X154940000Y-126820395D01*
X154954143Y-126806253D01*
X155133748Y-126985858D01*
M02*
